<?xml version="1.0" standalone="no"?>
<!DOCTYPE svg PUBLIC "-//W3C//DTD SVG 20010904//EN"
 "http://www.w3.org/TR/2001/REC-SVG-20010904/DTD/svg10.dtd">
<svg version="1.0" xmlns="http://www.w3.org/2000/svg"
 width="1133.000000pt" height="1280.000000pt" viewBox="0 0 1133.000000 1280.000000"
 preserveAspectRatio="xMidYMid meet">
<metadata>
Created by potrace 1.15, written by Peter Selinger 2001-2017
</metadata>
<g transform="translate(0.000000,1280.000000) scale(0.100000,-0.100000)"
fill="#f44336" stroke="none">
<path d="M3340 12789 c-182 -22 -368 -84 -531 -176 -136 -78 -219 -142 -344
-268 -222 -222 -391 -513 -468 -805 -43 -162 -52 -235 -51 -430 0 -152 4 -203
22 -287 33 -151 76 -273 143 -403 84 -162 175 -286 314 -426 232 -234 487
-391 810 -500 l130 -44 -2 -32 c-1 -18 -4 -56 -8 -84 l-6 -51 -97 -1 c-240 -2
-500 -123 -628 -293 -96 -127 -138 -253 -137 -414 0 -91 4 -121 23 -170 61
-158 203 -278 381 -320 238 -56 490 47 558 228 70 188 -41 352 -283 421 -67
20 -79 17 -39 -9 109 -71 125 -240 31 -311 l-24 -18 40 -20 c45 -23 86 -76 86
-112 0 -78 -65 -117 -190 -117 -218 2 -395 133 -461 343 -29 89 -28 230 0 321
77 245 362 429 646 417 46 -1 86 -6 90 -9 3 -4 10 -35 15 -70 29 -197 97 -340
232 -485 117 -124 306 -246 494 -319 l72 -27 6 -78 c7 -79 3 -147 -15 -275
-16 -111 -10 -104 -82 -88 -83 18 -277 17 -365 -1 -203 -42 -369 -156 -481
-331 -28 -44 -51 -84 -51 -90 0 -5 19 22 42 60 23 39 80 109 127 156 70 70
102 94 171 127 118 57 186 73 330 79 117 5 247 -7 277 -25 8 -5 2 -47 -22
-152 -60 -261 -85 -348 -154 -543 -103 -289 -148 -432 -181 -580 -27 -119 -37
-147 -98 -258 -138 -253 -269 -426 -460 -611 -66 -63 -133 -125 -149 -136
l-29 -21 -12 263 c-14 303 -29 406 -82 567 -68 205 -158 355 -303 506 -80 83
-210 182 -278 213 -25 11 -26 15 -17 49 16 57 5 159 -25 216 -91 180 -306 242
-503 145 -104 -51 -200 -181 -219 -295 -6 -39 -9 -42 -53 -54 -77 -22 -302
-136 -372 -189 -64 -50 -180 -165 -233 -232 l-27 -35 6 55 c37 327 250 672
522 847 199 127 454 181 663 139 278 -57 438 -234 468 -522 7 -63 9 -69 10
-31 2 69 -26 193 -59 262 -72 149 -194 245 -377 297 -115 32 -292 30 -427 -6
-441 -115 -783 -539 -832 -1031 -4 -40 -16 -89 -29 -115 -29 -58 -70 -194 -86
-287 -17 -102 -7 -317 21 -413 48 -169 158 -343 275 -433 48 -37 156 -98 172
-97 4 1 -19 15 -52 32 -196 101 -330 282 -391 527 -24 95 -29 283 -10 392 17
102 47 203 77 259 l18 35 1 -61 c0 -89 18 -215 47 -329 98 -394 356 -701 748
-890 208 -100 332 -130 540 -129 153 1 220 11 355 53 35 11 66 19 67 17 2 -2
-5 -19 -16 -37 -63 -110 -89 -327 -58 -481 62 -296 237 -507 534 -644 54 -25
104 -48 112 -52 7 -4 30 -47 51 -95 l38 -87 -27 8 c-52 14 -184 5 -245 -17
-320 -114 -592 -557 -547 -887 18 -126 81 -233 162 -275 45 -22 113 -24 149
-4 14 8 28 14 31 15 4 0 12 -37 19 -82 34 -235 143 -463 300 -631 72 -78 73
-67 -11 -180 -263 -350 -587 -581 -925 -658 -79 -18 -129 -22 -244 -22 -129 0
-158 4 -261 31 -602 157 -981 587 -1050 1192 -45 394 125 815 424 1055 95 76
247 155 362 187 117 33 319 33 425 0 94 -30 150 -62 218 -126 101 -95 158
-224 171 -385 8 -88 8 -90 9 -31 4 192 -93 385 -244 485 -205 136 -533 130
-802 -16 -295 -158 -508 -467 -578 -835 -26 -142 -16 -393 24 -544 80 -311
217 -534 438 -719 189 -157 446 -276 694 -321 92 -17 289 -15 388 4 229 44
449 154 657 328 118 99 281 279 364 401 17 26 36 47 41 47 6 0 30 -16 55 -35
142 -108 410 -207 550 -204 31 1 25 4 -25 10 -92 12 -231 54 -325 98 -79 37
-213 120 -233 144 -7 9 4 36 41 98 65 108 120 223 242 504 204 467 374 729
589 904 108 89 236 168 358 223 151 67 159 68 181 23 9 -19 17 -38 17 -41 0
-3 -21 -15 -47 -26 -150 -66 -338 -193 -447 -302 -48 -48 -138 -158 -183 -225
-1 -2 -28 15 -59 39 -30 23 -58 40 -60 37 -3 -3 19 -22 50 -44 30 -21 55 -41
56 -46 0 -4 -11 -24 -24 -45 -81 -129 -163 -348 -190 -511 -29 -171 -14 -407
34 -566 25 -81 84 -203 131 -272 54 -78 178 -201 255 -252 74 -50 161 -87 274
-117 49 -14 102 -18 215 -17 129 0 164 4 250 27 136 36 279 108 406 205 117
89 270 242 326 327 l36 55 61 -62 c232 -235 533 -313 937 -243 l36 6 81 -114
c180 -254 369 -468 642 -726 211 -199 332 -297 510 -412 329 -212 633 -322
923 -334 97 -4 105 -4 57 5 -305 57 -409 87 -524 155 -92 54 -192 145 -263
241 -144 195 -244 499 -247 748 -1 105 1 113 32 180 18 39 52 90 75 114 28 29
35 41 22 37 -76 -28 -275 -30 -275 -4 0 5 9 44 19 86 52 206 61 362 35 667
-15 178 -13 369 3 412 4 9 19 -48 34 -132 16 -82 35 -172 45 -199 58 -178 250
-374 428 -436 131 -47 252 -48 384 -4 172 57 430 213 553 334 157 156 265 363
299 573 15 93 8 256 -15 342 -18 71 -91 226 -136 291 -46 68 -153 178 -223
230 -125 95 -351 190 -520 221 -117 21 -371 21 -476 0 -41 -8 -75 -14 -76 -14
0 1 -22 30 -49 65 -26 34 -46 64 -43 67 10 10 208 55 333 76 l130 21 54 -51
c54 -51 168 -114 229 -126 35 -7 46 9 13 20 -53 16 -111 95 -111 149 0 31 3
32 175 46 334 29 599 98 875 227 109 51 246 133 311 184 20 16 39 29 42 29 3
0 -4 -33 -15 -73 -45 -164 -163 -356 -291 -473 -34 -31 -44 -43 -22 -26 54 41
154 146 194 205 56 82 111 203 134 295 l23 88 83 79 c195 186 321 410 368 654
22 118 22 343 -1 486 -29 177 -95 359 -181 496 l-24 37 82 12 c270 40 460 133
637 310 116 116 171 201 214 332 109 327 5 746 -243 981 -162 152 -332 223
-556 232 l-110 4 105 -9 c391 -33 660 -245 785 -622 179 -541 -119 -1041 -713
-1193 -34 -8 -97 -18 -140 -21 l-77 -5 -45 61 c-25 34 -88 103 -141 154 -363
347 -855 463 -1313 311 l-100 -33 -20 26 c-11 15 -48 56 -81 91 -213 225 -514
338 -835 313 l-85 -7 -71 135 c-38 74 -98 179 -132 234 -34 54 -62 101 -62
106 0 19 113 265 139 304 68 99 160 149 270 147 73 -1 100 -11 150 -56 98 -89
92 -264 -11 -348 -39 -31 -96 -39 -124 -17 -8 7 -17 10 -20 7 -3 -3 12 -15 35
-26 48 -25 142 -28 194 -6 210 88 117 383 -163 518 -131 63 -200 78 -365 84
-195 7 -328 -17 -457 -84 l-68 -35 -72 64 c-423 376 -978 650 -1640 812 -79
19 -162 38 -185 42 -24 4 -43 12 -43 18 0 6 9 53 20 104 56 276 266 520 550
642 150 65 199 75 360 75 138 0 149 -2 240 -33 223 -78 381 -209 478 -397 17
-33 31 -56 32 -52 0 4 -13 33 -29 65 -104 204 -328 369 -568 418 -103 22 -289
14 -388 -15 -168 -50 -329 -148 -451 -273 -135 -138 -207 -271 -240 -444 -10
-49 -18 -90 -20 -92 -1 -2 -60 8 -131 22 -120 24 -511 96 -523 96 -3 0 -4 42
-2 93 13 307 -202 538 -501 537 -207 -1 -386 -108 -480 -287 l-38 -72 -62 24
c-172 65 -388 170 -486 237 -68 47 -177 154 -227 225 -175 244 -189 544 -37
775 95 144 215 213 393 225 104 7 159 -7 208 -52 40 -36 45 -66 28 -172 l-8
-52 49 -53 c70 -75 83 -97 83 -143 -1 -90 -86 -175 -185 -183 -74 -6 -132 17
-184 73 -44 48 -56 89 -49 163 5 46 5 46 -8 17 -22 -49 -17 -144 9 -195 26
-53 103 -104 172 -115 57 -8 137 14 191 53 113 82 188 254 165 378 -34 182
-230 335 -429 334 -68 0 -176 -29 -252 -67 -95 -48 -212 -161 -258 -250 -70
-134 -94 -332 -57 -473 34 -130 135 -301 240 -406 87 -88 174 -141 448 -270
132 -63 243 -116 245 -119 2 -2 0 -10 -5 -19 -7 -13 -26 -9 -139 28 -578 194
-1026 610 -1203 1119 -115 331 -104 737 30 1074 216 545 657 946 1151 1047
113 23 306 34 433 25 635 -46 1128 -475 1165 -1014 l8 -120 -3 120 c-5 180
-51 316 -161 482 -174 262 -501 465 -849 528 -107 20 -370 27 -475 14z m623
-2984 c32 -8 76 -24 98 -36 142 -72 218 -244 175 -392 -18 -61 -20 -62 -87
-51 -37 6 -37 6 -41 64 -12 169 -228 230 -344 98 -18 -20 -34 -42 -36 -49 -5
-15 -248 78 -248 95 1 55 116 203 188 240 85 44 199 56 295 31z m54 -310 c33
-22 54 -58 60 -103 6 -45 0 -51 -44 -45 -27 4 -33 10 -33 29 0 64 -82 85 -130
34 -25 -27 -31 -29 -59 -19 -17 6 -31 16 -31 23 0 19 57 76 92 92 39 17 110
11 145 -11z m-521 -41 c17 -14 17 -15 1 -10 -10 3 -23 6 -28 6 -5 0 -9 5 -9
10 0 14 13 12 36 -6z m49 -40 c22 -4 68 -23 101 -42 55 -31 62 -39 67 -72 3
-21 22 -73 44 -117 l38 -79 -71 44 c-40 24 -110 59 -155 77 -82 32 -84 34 -96
76 -6 24 -12 64 -12 88 -1 40 1 43 22 38 12 -3 40 -9 62 -13z m500 -95 c17 -6
17 -8 4 -13 -14 -6 -89 18 -89 29 0 5 57 -5 85 -16z m154 -24 c2 -3 -4 -16
-13 -30 l-17 -25 -42 21 c-52 26 -51 25 -42 39 5 9 24 10 59 5 28 -3 52 -8 55
-10z m-279 -115 l45 -40 -35 6 c-91 16 -158 64 -167 118 l-6 40 59 -42 c32
-24 79 -60 104 -82z m740 35 c135 -24 284 -52 331 -62 l87 -16 5 -106 c9 -196
81 -382 223 -578 18 -26 31 -21 -136 -52 -58 -11 -181 -37 -275 -57 -151 -33
-186 -38 -317 -38 -80 -1 -149 2 -153 5 -3 4 6 33 20 65 57 126 39 242 -57
371 -64 87 -68 98 -79 220 l-9 102 40 62 c22 34 45 77 52 95 7 19 15 34 18 34
3 0 116 -20 250 -45z m-1010 -97 c238 -134 397 -347 474 -637 18 -68 21 -91
12 -91 -14 0 -163 92 -237 146 -74 54 -162 156 -200 231 -30 60 -34 76 -34
147 0 45 3 93 7 108 7 23 4 27 -21 36 -32 11 -106 75 -122 104 -10 18 -9 18
28 3 21 -9 63 -30 93 -47z m1680 -39 c555 -136 1054 -364 1443 -658 93 -70
229 -187 235 -202 2 -4 -14 -23 -35 -42 -53 -49 -100 -131 -120 -211 -41 -169
39 -358 182 -425 42 -20 61 -23 120 -19 100 7 162 45 246 150 l37 48 53 -82
c61 -96 199 -348 199 -364 0 -7 -35 -20 -77 -29 -105 -23 -258 -78 -355 -125
l-79 -40 -16 38 c-8 20 -49 104 -90 186 -40 82 -72 149 -71 151 2 1 20 8 41
17 l39 14 -41 13 c-57 17 -107 72 -217 239 -296 453 -604 650 -1099 703 -103
11 -282 7 -354 -7 -27 -6 -33 -1 -73 53 -123 166 -208 409 -208 590 l0 55 43
-7 c23 -4 112 -25 197 -46z m-1262 -109 l57 0 37 -63 c80 -135 121 -276 134
-464 7 -114 9 -111 -57 -93 -34 10 -37 14 -44 58 -10 71 -78 268 -120 352 -37
73 -88 152 -141 217 l-26 32 51 -20 c29 -10 77 -19 109 -19z m187 -684 c27
-11 35 -21 35 -39 0 -66 -67 -387 -84 -405 -4 -3 -11 -1 -17 5 -7 7 -5 37 7
99 10 54 18 141 18 221 1 73 2 133 4 133 1 0 18 -7 37 -14z m168 -104 c75 -55
117 -78 162 -92 l40 -12 -76 -78 c-42 -43 -98 -111 -124 -152 -27 -40 -51 -77
-55 -81 -6 -7 -140 58 -140 67 0 4 117 347 125 369 4 9 9 17 11 17 3 0 28 -17
57 -38z m1214 -267 c35 -14 100 -31 146 -36 106 -14 138 -30 218 -110 71 -70
123 -161 135 -237 l7 -42 -46 19 c-182 78 -507 129 -744 118 l-123 -7 0 34 c0
48 25 101 72 152 53 58 87 82 157 110 72 30 100 30 178 -1z m761 -84 c177 -54
359 -184 484 -347 80 -105 173 -269 217 -383 l19 -50 -94 -61 c-52 -33 -98
-60 -103 -60 -5 0 -33 39 -62 88 -113 189 -216 320 -377 478 l-113 112 -10 63
c-6 35 -21 90 -33 122 -28 67 -26 68 72 38z m-2198 -11 c0 -13 -91 -273 -101
-290 -14 -21 -12 -12 36 162 28 103 43 144 52 141 7 -3 13 -9 13 -13z m81
-222 c-85 -168 -137 -314 -171 -483 -20 -97 -27 -115 -65 -165 -54 -70 -156
-226 -202 -308 -19 -35 -37 -61 -39 -59 -16 16 199 677 309 947 30 74 67 170
82 212 l27 77 68 -34 68 -34 -77 -153z m748 156 c38 -11 68 -30 107 -68 58
-56 67 -76 33 -76 -78 0 -352 -75 -474 -130 l-64 -29 -30 54 c-17 29 -44 69
-61 88 -16 19 -30 39 -30 45 0 13 98 67 160 88 124 43 271 54 359 28z m-492
-176 c59 -79 89 -131 76 -135 -24 -8 -182 -106 -237 -148 -33 -24 -85 -69
-118 -99 -61 -58 -65 -57 -47 9 39 145 111 271 212 367 32 32 63 58 67 58 4 0
25 -24 47 -52z m1111 1 c134 -14 272 -44 389 -83 96 -32 98 -33 101 -66 2 -18
0 -36 -5 -41 -5 -5 -39 1 -80 15 -61 21 -178 52 -273 72 -22 5 -23 7 -7 15 10
6 26 7 37 4 31 -10 24 2 -17 30 -50 33 -113 34 -179 0 -42 -21 -57 -24 -114
-19 -90 9 -295 -13 -409 -42 -111 -29 -193 -60 -314 -120 -77 -38 -89 -41 -93
-26 -3 9 -12 34 -20 56 -8 21 -14 40 -12 41 2 1 35 16 73 33 127 55 283 97
463 126 17 2 26 -3 32 -18 l9 -21 0 22 c1 18 8 23 39 26 81 8 288 6 380 -4z
m888 -152 c89 -95 174 -202 243 -307 81 -121 81 -122 5 -49 -38 36 -98 90
-134 119 -74 61 -259 185 -290 195 -25 8 -26 0 6 173 5 23 6 22 54 -18 27 -23
79 -74 116 -113z m-4421 34 c116 -53 183 -180 152 -292 l-7 -27 -72 23 c-61
19 -73 27 -76 46 -6 55 -14 71 -45 89 -17 11 -47 20 -66 20 -44 0 -107 -36
-132 -77 -19 -30 -25 -33 -69 -33 -26 0 -62 -3 -80 -7 -32 -6 -33 -5 -26 23
24 100 114 207 199 237 60 22 173 21 222 -2z m2555 -142 c7 -24 2 -30 -73 -80
-96 -64 -251 -216 -327 -322 -30 -42 -58 -76 -61 -76 -8 -1 -19 90 -19 165 l0
61 88 84 c95 92 178 155 287 217 l70 40 14 -31 c7 -18 17 -44 21 -58z m1753
-1 c47 -29 123 -80 169 -113 94 -68 316 -280 305 -291 -4 -5 -31 15 -60 43
-115 111 -239 198 -412 288 -55 29 -106 54 -113 56 -10 3 -10 11 -1 37 6 17
14 32 18 32 4 0 46 -24 94 -52z m-1148 -7 c146 -30 236 -73 308 -146 34 -34
85 -74 112 -88 28 -14 60 -36 72 -49 47 -50 66 -141 48 -232 l-6 -31 28 35
c62 78 117 130 156 149 176 84 431 -37 534 -255 43 -89 51 -65 -78 -235 -135
-179 -209 -313 -262 -471 -29 -85 -57 -221 -57 -272 0 -23 -13 -49 -46 -92
-177 -225 -162 -497 38 -691 56 -54 147 -108 209 -124 l50 -13 83 -136 c46
-74 168 -263 271 -420 103 -157 190 -290 192 -296 2 -7 -29 -50 -70 -97 l-75
-86 -111 150 c-195 261 -323 411 -680 794 -238 254 -222 232 -319 447 -17 37
-52 90 -78 118 -26 28 -45 52 -43 53 312 228 428 399 429 630 0 207 -114 446
-268 560 -31 23 -70 57 -87 75 -16 19 -55 61 -85 94 -58 63 -149 134 -212 164
-43 20 -68 69 -69 137 l-1 42 -13 -30 c-8 -16 -14 -39 -15 -50 -1 -44 -12 -47
-90 -26 -126 35 -240 37 -395 6 l-30 -6 -1 155 c0 86 0 156 0 156 1 0 35 14
76 31 161 66 324 83 485 50z m-571 -153 c8 -68 8 -143 0 -200 l-6 -45 -82 -31
c-93 -36 -219 -111 -289 -172 -26 -23 -50 -40 -53 -37 -16 16 73 206 137 294
72 96 235 241 275 243 6 0 14 -24 18 -52z m-2859 -16 c0 -71 32 -127 97 -169
34 -23 55 -29 117 -31 68 -3 82 -1 131 25 48 25 110 88 122 124 4 13 112 -49
195 -113 124 -95 253 -257 333 -417 112 -225 142 -371 160 -791 10 -255 12
-247 -69 -276 -97 -35 -148 -62 -201 -108 -44 -38 -74 -53 -160 -80 -166 -53
-211 -61 -380 -60 -129 0 -170 4 -243 23 -109 28 -238 79 -337 133 -77 42
-215 132 -223 145 -3 5 25 8 62 8 84 0 137 31 170 97 35 73 26 129 -27 176
l-27 24 35 -7 c55 -10 132 -51 170 -90 32 -33 35 -41 35 -96 0 -32 3 -59 7
-59 17 0 42 110 42 185 0 66 -5 91 -28 142 -42 92 -113 155 -206 184 -155 47
-305 -10 -385 -146 -33 -55 -51 -162 -37 -206 l12 -34 -36 40 c-20 22 -57 76
-84 120 -119 198 -177 398 -187 645 l-5 145 47 65 c126 171 324 311 553 394
86 31 86 31 78 10 -11 -28 14 -154 41 -212 37 -79 140 -180 223 -219 94 -44
158 -56 264 -51 120 6 200 43 294 134 l67 65 -68 -51 c-89 -65 -130 -86 -204
-101 -126 -26 -264 20 -367 123 -85 85 -128 175 -134 280 l-5 77 49 4 c27 2
63 4 79 5 l30 2 0 -58z m6143 -8 c177 -59 365 -200 486 -364 l44 -60 -80 -77
c-91 -89 -175 -209 -217 -310 -31 -75 -61 -193 -61 -240 0 -22 -11 -36 -53
-65 -28 -21 -64 -47 -79 -58 l-27 -21 0 144 c-1 176 -20 334 -67 537 -34 143
-128 439 -160 502 -27 51 -22 55 62 46 42 -4 110 -20 152 -34z m-5827 25 c19
-6 46 -15 61 -21 l28 -10 -20 -28 c-41 -58 -143 -79 -194 -39 -40 32 -35 63
14 78 21 6 42 16 45 21 8 13 24 13 66 -1z m5607 -62 c45 -108 107 -298 141
-434 54 -212 72 -335 78 -538 l5 -190 -99 -100 c-103 -104 -210 -240 -281
-359 -23 -39 -42 -64 -42 -57 0 8 -6 59 -14 115 -8 55 -18 148 -21 206 -16
248 -109 649 -242 1042 l-46 136 32 41 c89 112 274 208 407 210 l51 1 31 -73z
m-2653 -182 c100 -22 110 -29 113 -66 1 -19 19 -68 39 -109 30 -62 56 -94 153
-190 65 -63 127 -131 139 -150 26 -44 28 -113 3 -160 -24 -43 -38 -48 -46 -16
-10 40 -66 97 -121 122 -104 49 -233 21 -309 -67 l-34 -40 -19 28 c-28 40 -53
108 -53 143 0 49 -16 34 -29 -27 -17 -88 -14 -222 8 -292 26 -83 66 -143 199
-295 140 -161 162 -219 131 -342 -13 -51 -7 -50 -159 -29 -190 27 -277 62
-352 143 -26 28 -51 66 -57 88 -15 54 -14 144 4 244 37 210 3 316 -139 433
l-63 51 44 95 c72 155 93 210 121 321 l27 104 40 9 c119 26 249 26 360 2z
m4350 -19 c254 -55 479 -175 671 -359 85 -81 164 -173 164 -192 0 -3 -55 -4
-122 -1 -352 17 -902 27 -1007 18 -112 -9 -113 -9 -165 19 -28 15 -70 33 -92
39 l-41 12 -6 72 c-7 82 -32 161 -81 252 -30 57 -32 65 -17 73 34 18 179 59
246 70 39 6 81 13 95 15 50 9 287 -3 355 -18z m-5402 -103 c-6 -65 -15 -165
-18 -223 -4 -58 -16 -139 -27 -180 -26 -98 -36 -368 -18 -478 17 -111 55 -224
107 -324 l46 -86 -17 -81 c-9 -45 -16 -90 -16 -101 0 -32 -14 -24 -70 43 -127
149 -219 324 -264 502 -26 102 -34 232 -24 401 l8 159 62 110 c64 115 229 375
238 375 3 0 0 -53 -7 -117z m612 3 c-20 -81 -122 -333 -154 -385 -8 -12 -18
-8 -53 21 -43 35 -137 145 -171 200 l-17 27 71 56 c40 30 101 72 137 92 60 34
204 95 210 89 1 -2 -9 -47 -23 -100z m718 -2 c67 -44 213 -181 203 -191 -15
-15 -252 173 -277 219 -14 26 -5 23 74 -28z m1851 -101 c75 -231 227 -749 225
-775 0 -7 -17 34 -38 92 -42 118 -130 310 -189 415 -111 199 -112 201 -102
255 8 44 48 150 55 150 2 0 24 -62 49 -137z m1352 -129 c24 -50 46 -104 50
-120 5 -27 2 -30 -40 -48 -61 -24 -141 -97 -177 -162 -18 -31 -39 -54 -52 -58
-12 -3 -61 -28 -110 -56 -48 -27 -89 -50 -90 -50 -2 0 0 24 4 54 23 175 113
342 262 490 93 93 83 96 153 -50z m-2012 -89 c9 -58 -1 -151 -25 -245 -21 -77
-41 -117 -92 -184 l-30 -38 44 23 c39 21 58 24 155 24 108 0 112 -1 188 -38
216 -107 430 -294 556 -485 55 -85 112 -219 114 -269 1 -17 4 -29 8 -27 13 8
21 -111 15 -240 -6 -126 -30 -256 -72 -391 -18 -57 -3 -49 20 10 15 39 15 38
11 -63 -10 -209 19 -459 77 -657 l23 -80 -54 -42 c-30 -24 -61 -43 -69 -43 -7
0 -49 14 -92 30 -76 30 -171 98 -171 123 0 6 13 25 29 42 39 40 68 97 82 161
10 44 9 79 -5 192 -17 136 -17 141 4 258 80 457 -4 812 -247 1047 l-50 48 23
92 c13 51 23 103 23 117 -1 20 -2 21 -5 5 -14 -66 -47 -201 -50 -204 -2 -2
-21 10 -42 27 -51 41 -166 99 -244 123 -79 25 -253 36 -328 20 -30 -6 -78 -22
-107 -36 l-52 -24 5 32 c41 249 94 401 190 550 49 76 140 187 154 187 4 0 11
-20 14 -45z m3565 -144 l173 -6 44 -80 c129 -235 183 -479 171 -760 -13 -295
-118 -534 -333 -755 l-93 -95 6 62 c7 79 -12 235 -43 341 -80 276 -288 513
-560 638 -77 36 -245 84 -291 84 -20 0 -24 4 -18 18 17 38 35 140 35 197 0
111 -47 236 -119 317 -35 39 -39 47 -24 52 21 6 793 -3 1052 -13z m-1465 -41
c-11 -9 -147 -50 -152 -46 -7 8 66 56 104 70 34 11 40 11 48 -1 4 -8 4 -18 0
-23z m-4972 -117 c-3 -122 0 -166 18 -253 42 -206 174 -458 324 -618 l49 -52
2 -188 c1 -151 5 -206 23 -288 39 -180 109 -359 198 -505 20 -33 34 -62 31
-65 -3 -3 -69 -32 -147 -65 -204 -85 -266 -100 -446 -106 -180 -6 -265 8 -419
68 -162 63 -157 58 -193 195 -27 103 -72 318 -72 344 0 4 19 -1 43 -13 62 -30
185 -29 249 2 107 52 191 177 211 316 29 197 -96 431 -276 520 -74 36 -199 61
-241 49 -12 -3 0 12 29 37 101 85 322 317 390 409 82 110 161 233 199 308 14
28 27 52 29 52 1 0 1 -66 -1 -147z m5272 87 c113 -82 196 -259 183 -395 -9
-97 -1 -91 -150 -98 -73 -4 -143 -10 -157 -14 -21 -6 -19 -2 14 28 111 97 114
273 6 360 -35 28 -37 33 -30 67 4 20 11 54 14 74 l7 38 35 -15 c19 -8 54 -28
78 -45z m-280 -37 c4 -32 3 -49 -5 -52 -6 -2 -26 -17 -45 -33 -36 -32 -56 -83
-47 -120 9 -35 54 -78 81 -78 23 0 24 -2 19 -42 -7 -48 -4 -45 44 40 16 29 37
56 46 59 24 9 43 -24 43 -75 0 -38 -5 -50 -38 -82 -97 -97 -251 -64 -326 70
-42 74 -44 168 -5 250 l26 56 84 26 c115 37 115 37 123 -19z m-325 -113 c-22
-102 11 -216 85 -298 40 -44 125 -92 164 -92 31 0 19 -17 -18 -25 -17 -4 -76
-24 -131 -46 -117 -45 -116 -45 -184 38 -74 91 -111 179 -121 294 l-7 67 69
40 c80 46 148 81 152 78 1 -2 -3 -27 -9 -56z m-194 -254 c23 -70 68 -141 127
-203 l51 -51 -74 -38 c-95 -47 -236 -133 -321 -195 -37 -27 -70 -49 -72 -49
-2 0 3 21 11 48 27 88 72 322 84 441 l12 118 76 56 76 57 7 -67 c4 -36 14 -89
23 -117z m-200 -8 c-13 -127 -46 -316 -75 -428 l-30 -115 -58 -49 c-103 -89
-198 -190 -231 -246 l-33 -55 7 50 c4 28 9 128 10 223 l3 172 41 69 c66 111
158 229 264 338 55 57 102 103 104 103 2 0 1 -28 -2 -62z m-1310 -147 c94 -47
162 -113 201 -196 24 -51 31 -103 16 -120 -15 -18 -54 -85 -48 -85 3 0 16 19
30 43 23 38 26 40 26 16 0 -23 6 -28 61 -43 111 -30 213 -160 258 -326 42
-153 48 -344 16 -500 -17 -83 -38 -136 -27 -70 4 25 7 79 7 120 -1 94 -32 167
-105 244 -63 67 -140 108 -252 136 l-86 22 20 45 c40 90 31 221 -20 302 -20
33 -92 122 -112 139 -56 49 -150 65 -218 37 -50 -21 -109 -81 -123 -124 l-12
-36 -19 45 c-26 61 -55 173 -64 243 -7 66 -1 78 60 109 77 40 117 48 214 44
85 -3 100 -7 177 -45z m2459 27 c-9 -30 -55 -97 -85 -125 -13 -12 -58 -42 -99
-68 -81 -51 -61 -52 33 -2 74 39 138 95 178 158 38 58 45 59 174 25 288 -78
539 -279 665 -535 73 -149 100 -265 100 -437 l0 -112 -37 -33 c-96 -84 -326
-211 -508 -282 -96 -36 -222 -74 -345 -102 -41 -9 -83 -19 -93 -22 -14 -3 -9
7 17 42 71 93 84 218 33 328 -33 72 -89 127 -173 168 -64 32 -75 34 -169 34
-88 0 -107 -3 -159 -28 -117 -54 -194 -142 -236 -268 -30 -89 -25 -209 12
-291 l26 -56 -51 -7 c-98 -13 -360 -71 -409 -90 -12 -5 -24 8 -51 57 -100 182
-64 350 128 588 109 134 130 226 100 430 -19 133 -16 161 32 252 34 65 137
189 172 208 12 6 36 -1 85 -26 38 -19 76 -34 85 -34 9 1 -5 9 -30 19 -53 21
-109 53 -109 62 0 11 160 86 230 108 58 18 182 43 265 54 17 2 74 5 128 6 98
1 98 1 91 -21z m-2954 -486 c11 -40 32 -101 46 -134 14 -33 23 -62 20 -65 -2
-3 -27 16 -55 42 -102 95 -135 234 -91 376 l23 74 19 -110 c10 -60 27 -143 38
-183z m-1956 166 c103 -138 213 -232 481 -412 72 -49 132 -90 135 -92 5 -6
-188 63 -267 95 -135 53 -299 152 -392 236 l-53 49 7 50 c8 63 25 146 30 146
2 0 28 -33 59 -72z m2391 -8 c23 -11 53 -32 66 -46 21 -22 24 -35 23 -97 0
-53 -6 -83 -21 -113 -25 -47 -95 -114 -121 -114 -9 0 -35 15 -56 34 l-40 33
40 6 c50 8 101 56 110 103 19 105 -107 186 -172 111 -28 -33 -30 -54 -8 -85
23 -33 63 -29 77 8 19 49 57 32 57 -26 0 -44 -47 -84 -99 -84 -39 0 -63 19
-110 88 -27 39 -23 81 12 132 47 69 156 92 242 50z m-3601 -72 c3 -46 10 -177
16 -293 6 -115 14 -222 17 -237 3 -16 3 -28 0 -28 -18 0 -60 23 -91 50 -20 18
-36 29 -36 26 0 -21 49 -96 96 -147 30 -33 54 -68 54 -80 0 -34 47 -256 73
-346 13 -46 22 -83 20 -83 -15 0 -99 69 -150 123 -75 81 -106 154 -101 239 l3
57 -45 11 c-59 14 -125 67 -172 136 -159 235 -50 568 210 639 26 7 59 14 74
14 26 1 26 0 32 -81z m185 46 c67 -30 135 -95 173 -165 32 -62 33 -211 2 -280
-49 -105 -144 -170 -251 -171 -29 0 -56 1 -58 3 -5 6 -35 502 -35 587 l0 65
55 -6 c30 -3 81 -18 114 -33z m1181 -104 c55 -44 193 -107 285 -130 44 -11
121 -23 170 -27 87 -5 95 -8 215 -71 69 -37 204 -104 300 -150 447 -214 488
-237 680 -389 184 -146 451 -436 635 -688 l77 -105 -30 -34 -29 -33 -59 81
c-192 266 -506 581 -729 733 -229 155 -355 214 -747 343 l-247 81 -153 102
c-200 133 -440 316 -414 317 4 0 25 -13 46 -30z m-82 -174 c143 -97 245 -143
547 -248 182 -63 216 -79 385 -177 102 -60 245 -143 318 -185 341 -196 664
-447 884 -687 147 -161 152 -167 107 -109 -69 89 -345 358 -464 453 -200 160
-324 240 -768 497 -97 57 -176 104 -174 106 1 2 74 -24 162 -57 534 -199 842
-441 1253 -984 l91 -119 -17 -28 c-18 -31 -27 -35 -35 -15 -13 34 -266 324
-373 427 -155 150 -271 236 -419 310 -214 107 -362 136 -655 127 -243 -7 -363
-35 -640 -147 l-125 -50 -17 22 c-34 44 -147 284 -172 366 -64 207 -89 415
-70 579 l7 53 46 -39 c25 -21 83 -64 129 -95z m4445 -780 c-7 -42 26 -119 59
-137 l23 -13 -30 -7 c-16 -4 -50 -7 -73 -8 l-44 -1 7 43 c6 37 52 157 61 157
1 0 0 -15 -3 -34z m-5412 -290 c53 -14 134 -30 180 -36 46 -6 106 -16 133 -22
l48 -10 -141 -69 -141 -68 -51 26 c-35 19 -56 38 -70 64 -20 41 -60 139 -56
139 1 0 46 -11 98 -24z m1095 -86 c100 -50 149 -90 178 -148 l23 -46 -103 -41
c-248 -102 -496 -281 -634 -460 -23 -30 -46 -55 -50 -55 -5 0 -61 52 -125 115
l-116 114 47 45 c41 40 46 49 41 76 -9 42 -35 74 -78 99 -48 27 -50 27 -32
-10 17 -34 29 -148 19 -174 -5 -14 -9 -15 -21 -5 -11 9 -13 23 -9 49 13 79
-57 247 -118 285 -10 6 -18 14 -18 17 0 9 237 126 270 134 18 4 56 -8 130 -41
99 -45 110 -48 190 -48 97 0 156 23 245 93 28 22 57 40 66 40 9 1 52 -17 95
-39z m1526 -29 c98 -25 208 -76 300 -138 73 -49 234 -200 282 -264 l26 -36
-26 -47 c-14 -25 -27 -46 -30 -46 -2 0 -52 36 -111 79 -250 183 -541 310 -820
357 -71 12 -107 24 -131 42 -18 14 -30 27 -27 30 3 3 54 16 113 29 134 28 304
26 424 -6z m-314 -141 c173 -35 341 -97 511 -186 109 -58 295 -179 326 -214
36 -40 4 -32 -72 18 -183 119 -479 235 -746 293 -50 11 -63 19 -98 61 -23 26
-36 48 -29 48 7 0 55 -9 108 -20z m1500 -130 c50 -76 92 -143 92 -149 0 -6
-20 -38 -45 -71 -24 -34 -58 -86 -76 -116 l-31 -56 -55 104 c-30 56 -71 129
-90 161 -34 57 -35 59 -22 104 8 30 30 65 67 104 30 33 57 59 61 59 3 0 48
-63 99 -140z m470 97 c7 -18 12 -36 12 -39 0 -3 -23 -1 -52 5 l-52 10 34 29
c19 15 37 28 40 28 3 0 11 -15 18 -33z m824 -2 c145 -31 319 -104 440 -187
191 -129 412 -415 491 -632 42 -114 49 -272 18 -364 -30 -89 -64 -138 -119
-173 -64 -40 -114 -52 -203 -47 -59 4 -86 10 -122 31 -42 25 -117 101 -117
118 0 5 -32 74 -71 155 -56 115 -84 160 -130 209 -82 87 -194 144 -320 164
-52 8 -53 8 -29 -8 143 -93 212 -263 162 -403 -58 -164 -198 -249 -319 -191
-42 19 -87 86 -108 158 -9 28 -26 77 -40 110 l-25 60 89 92 c74 76 98 108 135
185 110 226 122 497 32 712 l-16 39 92 -8 c51 -3 123 -13 160 -20z m-3562
-337 c14 -8 70 -32 125 -52 55 -20 121 -46 147 -57 137 -57 258 -162 311 -269
29 -59 32 -75 36 -177 2 -62 0 -113 -4 -113 -4 0 -19 8 -33 18 -15 10 -96 56
-180 103 -92 50 -177 105 -212 137 -65 58 -110 137 -110 191 0 28 -3 32 -12
23 -8 -8 -13 -42 -13 -90 0 -65 5 -87 29 -137 34 -69 130 -169 249 -258 97
-73 131 -121 131 -186 0 -121 -129 -221 -283 -221 -50 0 -117 16 -126 29 -2 5
5 35 16 67 22 60 31 211 17 280 -11 57 -66 158 -112 206 -176 184 -431 217
-637 82 -26 -17 -28 -16 -82 15 l-56 32 32 55 c112 195 322 351 550 409 l92
23 50 -47 c28 -26 61 -54 75 -63z m-1174 -88 l141 -139 -32 -48 c-110 -163
-215 -367 -343 -664 -91 -212 -144 -320 -210 -432 l-46 -77 -34 32 c-57 55
-157 189 -200 268 -53 99 -96 224 -116 339 -21 126 -21 154 5 177 32 28 59 93
58 139 l-1 40 -8 -39 c-9 -46 -62 -103 -68 -72 -6 30 27 211 54 297 24 76 59
159 68 159 2 0 50 -10 107 -21 137 -28 240 -23 328 16 66 30 136 96 147 139 3
14 7 26 8 26 0 0 65 -63 142 -140z m3593 96 l24 -44 -35 -43 c-20 -24 -61 -83
-90 -130 l-54 -86 -17 41 c-9 23 -17 48 -17 56 1 23 146 250 160 250 3 0 16
-20 29 -44z m-288 -165 c27 -64 29 -77 19 -102 -7 -16 -16 -29 -19 -29 -16 0
-62 121 -81 212 -11 54 -20 101 -20 105 1 15 70 -113 101 -186z m-4079 53 c3
-3 -5 -33 -19 -67 -37 -91 -72 -238 -80 -334 -7 -91 -3 -88 -83 -83 -91 5
-190 89 -209 178 -27 128 73 267 216 301 43 10 167 14 175 5z m3054 -68 c127
-46 221 -130 282 -251 51 -100 62 -162 58 -325 -3 -156 -18 -217 -72 -287 -13
-17 -24 -34 -24 -36 0 -2 25 9 56 25 31 15 62 28 69 28 7 0 15 -15 18 -33 17
-108 157 -408 283 -609 41 -66 73 -122 70 -125 -3 -3 -38 3 -78 12 -83 21
-213 84 -277 135 -108 86 -220 277 -261 441 -13 54 -24 148 -30 245 -10 174
-27 286 -66 438 -25 98 -87 275 -118 334 -16 31 -16 32 3 32 11 0 50 -11 87
-24z m1472 -111 c59 -120 130 -296 167 -419 l27 -90 -33 -28 -34 -29 33 16
c19 9 36 14 38 12 3 -3 13 -40 24 -83 39 -166 62 -330 76 -529 7 -102 8 -475
1 -481 -6 -6 -107 31 -163 59 -28 14 -73 43 -101 65 l-50 40 -6 209 c-3 118
-13 250 -22 306 -9 54 -14 105 -11 112 8 21 61 46 151 70 l80 22 -45 12 c-77
20 -98 32 -138 75 -96 105 -153 414 -112 611 17 81 50 169 60 158 5 -4 31 -53
58 -108z m-373 -54 c15 -45 13 -101 -4 -101 -4 0 -16 21 -27 48 -15 36 -18 53
-10 75 5 15 13 27 17 27 4 0 15 -22 24 -49z m-112 -51 c-9 -33 -23 -22 -23 18
1 33 2 35 14 19 8 -10 12 -27 9 -37z m-2797 -62 c3 -5 -9 -26 -29 -46 -144
-152 -151 -378 -16 -527 73 -79 142 -110 244 -110 90 0 137 19 192 77 32 33
72 110 73 138 0 33 -22 91 -46 120 -35 41 -22 38 52 -15 l64 -46 -6 -42 c-7
-58 19 -192 50 -259 14 -30 26 -62 26 -71 0 -10 4 -16 8 -14 5 1 35 -25 68
-58 32 -33 99 -98 148 -145 109 -103 131 -144 131 -250 0 -90 -23 -146 -85
-214 -54 -58 -112 -86 -197 -93 -122 -9 -261 38 -383 132 -152 118 -342 377
-419 573 -101 257 -100 624 3 857 l25 54 45 -25 c25 -14 49 -30 52 -36z m2850
-32 c12 -30 18 -59 15 -65 -8 -13 -51 71 -51 99 0 35 14 21 36 -34z m-271
-620 c74 -40 80 -46 83 -77 13 -179 43 -349 87 -495 15 -47 25 -87 23 -89 -1
-2 -19 -8 -38 -13 -19 -6 -27 -11 -18 -11 9 -1 28 3 41 8 23 9 26 6 42 -37 48
-127 209 -432 222 -419 2 2 -20 44 -48 93 -98 170 -176 366 -222 554 -28 115
-57 305 -57 375 l0 44 34 -20 c38 -22 46 -49 46 -164 0 -267 103 -618 251
-859 17 -27 33 -61 36 -75 5 -29 -44 22 -213 220 -170 199 -296 416 -344 594
-32 119 -41 415 -12 415 4 0 43 -20 87 -44z"/>
<path d="M2496 6933 c-6 -14 -5 -15 5 -6 7 7 10 15 7 18 -3 3 -9 -2 -12 -12z"/>
<path d="M7471 5189 c-6 -18 -9 -34 -7 -36 2 -2 9 10 15 28 6 18 9 34 7 36 -2
2 -9 -10 -15 -28z"/>
<path d="M7441 5094 c0 -11 3 -14 6 -6 3 7 2 16 -1 19 -3 4 -6 -2 -5 -13z"/>
<path d="M7425 5040 c-4 -17 -5 -34 -2 -36 2 -3 7 10 11 27 8 42 0 50 -9 9z"/>
<path d="M7411 4964 c0 -11 3 -14 6 -6 3 7 2 16 -1 19 -3 4 -6 -2 -5 -13z"/>
<path d="M7402 4905 c0 -16 2 -22 5 -12 2 9 2 23 0 30 -3 6 -5 -1 -5 -18z"/>
<path d="M7394 4735 c0 -55 1 -76 3 -47 2 29 2 74 0 100 -2 26 -3 2 -3 -53z"/>
<path d="M8595 5490 c19 -8 73 -14 64 -6 -2 2 -22 6 -44 9 -28 5 -34 4 -20 -3z"/>
<path d="M8708 5473 c17 -2 47 -2 65 0 17 2 3 4 -33 4 -36 0 -50 -2 -32 -4z"/>
<path d="M6580 3626 c0 -2 8 -10 18 -17 15 -13 16 -12 3 4 -13 16 -21 21 -21
13z"/>
<path d="M5008 2703 c23 -2 59 -2 80 0 20 2 1 4 -43 4 -44 0 -61 -2 -37 -4z"/>
<path d="M7485 2515 c-25 -12 -26 -14 -5 -9 14 4 29 10 35 15 12 12 5 11 -30
-6z"/>
<path d="M7200 1140 c6 -11 13 -20 16 -20 2 0 0 9 -6 20 -6 11 -13 20 -16 20
-2 0 0 -9 6 -20z"/>
<path d="M3983 12045 c-161 -44 -280 -157 -333 -316 -30 -91 -30 -231 -1 -318
72 -212 266 -344 506 -345 91 0 195 18 195 35 0 5 -24 9 -52 9 -96 1 -160 46
-213 150 -32 63 -55 157 -55 221 l1 54 14 -39 c30 -84 96 -122 199 -114 78 7
132 34 185 94 131 149 73 419 -112 527 -94 55 -224 71 -334 42z"/>
<path d="M4806 11599 c-4 -23 -5 -44 -2 -46 2 -2 7 14 11 37 4 23 5 43 2 46
-2 3 -7 -14 -11 -37z"/>
<path d="M4782 11503 c-15 -48 -8 -55 8 -8 7 20 10 38 8 41 -3 2 -10 -13 -16
-33z"/>
<path d="M4742 11405 c-12 -25 -20 -45 -17 -45 7 0 47 81 43 86 -3 2 -14 -17
-26 -41z"/>
<path d="M4695 11324 c-9 -15 -12 -23 -6 -20 11 7 35 46 28 46 -3 0 -12 -12
-22 -26z"/>
<path d="M4649 11263 l-24 -28 28 24 c25 23 32 31 24 31 -2 0 -14 -12 -28 -27z"/>
<path d="M4549 11163 c-13 -16 -12 -17 4 -4 16 13 21 21 13 21 -2 0 -10 -8
-17 -17z"/>
<path d="M190 10257 c-183 -52 -238 -215 -140 -412 59 -121 176 -230 323 -303
112 -55 200 -80 319 -91 101 -10 138 -4 138 21 0 21 82 173 122 228 23 30 73
86 112 123 50 48 62 64 41 54 -294 -144 -394 -183 -521 -206 -83 -15 -200 -16
-252 -2 -58 16 -124 78 -153 144 -32 71 -33 191 -3 258 63 135 185 192 272
126 l27 -21 -20 23 c-49 57 -173 84 -265 58z"/>
<path d="M1785 10199 c-76 -14 -170 -47 -274 -96 -313 -145 -566 -410 -647
-678 -25 -82 -25 -251 0 -319 27 -74 64 -124 115 -154 60 -35 162 -38 232 -5
80 36 170 135 169 185 -1 7 -10 -4 -21 -25 -59 -111 -218 -101 -331 21 -94
102 -118 226 -64 335 33 68 80 110 164 150 76 35 172 46 253 27 79 -18 207
-83 327 -168 172 -120 265 -159 397 -169 223 -16 379 120 392 342 7 96 -7 164
-49 249 -78 161 -191 252 -365 297 -82 20 -210 24 -298 8z"/>
<path d="M2528 9593 c-5 -85 -31 -154 -75 -198 -30 -29 -22 -31 59 -14 73 16
108 52 108 114 0 54 -18 97 -58 143 l-29 33 -5 -78z"/>
<path d="M6781 9454 c0 -11 3 -14 6 -6 3 7 2 16 -1 19 -3 4 -6 -2 -5 -13z"/>
<path d="M6274 9414 c-58 -21 -114 -72 -149 -135 -26 -47 -30 -64 -30 -129 0
-82 19 -129 76 -194 35 -40 140 -96 178 -96 26 1 25 1 -6 18 -53 28 -67 57
-66 132 0 66 30 166 32 108 2 -67 93 -119 170 -98 49 13 106 75 122 132 14 53
-1 128 -35 179 -53 78 -197 119 -292 83z"/>
<path d="M6802 9365 c0 -16 2 -22 5 -12 2 9 2 23 0 30 -3 6 -5 -1 -5 -18z"/>
<path d="M6801 9214 c0 -11 3 -14 6 -6 3 7 2 16 -1 19 -3 4 -6 -2 -5 -13z"/>
<path d="M10323 8183 c9 -2 25 -2 35 0 9 3 1 5 -18 5 -19 0 -27 -2 -17 -5z"/>
<path d="M10245 8170 c-25 -11 1 -11 35 0 20 6 21 8 5 8 -11 0 -29 -3 -40 -8z"/>
<path d="M10114 8120 c-55 -27 -101 -59 -146 -102 -35 -35 -44 -45 -19 -22 75
67 116 94 198 130 43 18 71 34 63 34 -8 0 -51 -18 -96 -40z"/>
<path d="M9883 7928 c-15 -20 -25 -38 -20 -38 3 0 12 11 21 25 17 26 16 35 -1
13z"/>
<path d="M10128 7839 c-80 -23 -157 -120 -158 -199 -1 -119 143 -208 217 -134
l26 26 -7 -29 c-10 -39 -49 -103 -81 -133 -22 -20 -36 -25 -80 -24 -64 0 -62
-9 6 -31 234 -78 450 114 385 339 -38 131 -184 219 -308 185z"/>
<path d="M3152 7415 c-7 -14 -12 -31 -12 -38 1 -7 7 3 16 22 17 39 13 54 -4
16z"/>
<path d="M3122 7310 c0 -14 2 -19 5 -12 2 6 2 18 0 25 -3 6 -5 1 -5 -13z"/>
<path d="M3111 7264 c0 -11 3 -14 6 -6 3 7 2 16 -1 19 -3 4 -6 -2 -5 -13z"/>
<path d="M3474 7206 c-110 -51 -161 -171 -115 -271 35 -79 116 -123 188 -103
75 21 113 91 81 151 -11 21 -10 21 13 6 13 -9 38 -37 56 -64 37 -53 43 -106
17 -143 -29 -42 -7 -33 34 13 96 110 98 260 3 355 -79 79 -182 100 -277 56z"/>
<path d="M3102 7170 c0 -19 2 -27 5 -17 2 9 2 25 0 35 -3 9 -5 1 -5 -18z"/>
<path d="M2552 7110 c0 -19 2 -27 5 -17 2 9 2 25 0 35 -3 9 -5 1 -5 -18z"/>
<path d="M2541 7054 c0 -11 3 -14 6 -6 3 7 2 16 -1 19 -3 4 -6 -2 -5 -13z"/>
<path d="M3111 7054 c0 -11 3 -14 6 -6 3 7 2 16 -1 19 -3 4 -6 -2 -5 -13z"/>
<path d="M3200 6836 c0 -2 8 -10 18 -17 15 -13 16 -12 3 4 -13 16 -21 21 -21
13z"/>
<path d="M1328 5343 c7 -3 16 -2 19 1 4 3 -2 6 -13 5 -11 0 -14 -3 -6 -6z"/>
<path d="M1468 5343 c6 -2 18 -2 25 0 6 3 1 5 -13 5 -14 0 -19 -2 -12 -5z"/>
<path d="M9530 3860 c-9 -6 -10 -10 -3 -10 6 0 15 5 18 10 8 12 4 12 -15 0z"/>
<path d="M1692 3104 c-94 -47 -141 -126 -142 -239 0 -69 24 -141 62 -185 73
-86 209 -117 339 -78 53 15 49 25 -10 24 -42 -1 -55 4 -81 29 -36 34 -64 84
-75 133 l-7 33 25 -25 c36 -35 70 -41 122 -21 142 54 133 254 -15 332 -62 33
-149 32 -218 -3z"/>
<path d="M2231 2974 c0 -11 3 -14 6 -6 3 7 2 16 -1 19 -3 4 -6 -2 -5 -13z"/>
</g>
</svg>
