<?xml version="1.0" standalone="no"?>
<!DOCTYPE svg PUBLIC "-//W3C//DTD SVG 20010904//EN"
 "http://www.w3.org/TR/2001/REC-SVG-20010904/DTD/svg10.dtd">
<svg version="1.0" xmlns="http://www.w3.org/2000/svg"
 width="1280.000000pt" height="1280.000000pt" viewBox="0 0 1280.000000 1280.000000"
 preserveAspectRatio="xMidYMid meet">
<metadata>
Created by potrace 1.15, written by Peter Selinger 2001-2017
</metadata>
<g transform="translate(0.000000,1280.000000) scale(0.100000,-0.100000)"
fill="#ff5722" stroke="none">
<path d="M6140 11554 c-480 -31 -746 -70 -1130 -165 -825 -205 -1586 -596
-2230 -1145 -156 -133 -472 -451 -599 -603 -278 -334 -487 -653 -671 -1026
-222 -452 -363 -887 -444 -1370 -78 -462 -87 -985 -25 -1450 142 -1066 629
-2055 1398 -2839 455 -462 919 -797 1495 -1077 810 -392 1646 -574 2556 -556
414 9 725 44 1108 128 531 116 1065 321 1542 591 160 91 494 313 631 420 893
697 1514 1608 1810 2652 172 609 224 1305 143 1938 -120 950 -504 1817 -1143
2588 -127 154 -475 500 -636 634 -888 738 -1931 1164 -3100 1266 -124 11 -608
21 -705 14z m470 -74 c757 -34 1425 -195 2110 -510 191 -88 393 -198 638 -351
20 -12 22 -19 17 -57 -10 -70 21 -98 140 -131 22 -6 65 -31 95 -56 30 -25 84
-63 120 -84 40 -24 117 -91 202 -174 75 -75 155 -147 178 -162 49 -31 80 -78
80 -124 0 -28 11 -44 73 -105 40 -39 84 -85 97 -102 25 -30 105 -82 114 -73 3
3 6 21 8 42 1 20 5 37 8 37 8 0 176 -208 251 -310 302 -410 566 -927 719
-1405 165 -515 240 -1045 227 -1590 -7 -252 -14 -348 -48 -585 -112 -791 -438
-1569 -937 -2235 -327 -437 -777 -864 -1238 -1175 -768 -520 -1618 -822 -2574
-917 -243 -24 -777 -24 -1020 0 -1143 114 -2149 530 -3010 1247 -161 134 -496
469 -630 630 -662 795 -1047 1715 -1141 2725 -7 72 -13 247 -13 391 -1 235 1
262 17 278 9 10 17 21 17 26 0 4 32 35 71 68 74 63 132 137 161 207 13 30 18
83 22 215 7 211 16 290 32 269 24 -30 35 -90 45 -229 9 -143 5 -205 -12 -216
-5 -3 -9 -24 -9 -48 0 -43 -16 -149 -27 -176 -3 -8 -5 -53 -4 -100 2 -61 8
-96 22 -123 10 -21 19 -48 20 -60 0 -12 6 -38 13 -57 12 -32 14 -33 23 -15 6
11 14 43 17 70 32 252 64 426 100 533 18 52 27 68 45 70 13 2 29 19 43 45 25
50 50 150 42 171 -4 10 10 23 44 40 l50 25 7 -175 c5 -124 4 -192 -5 -232 -10
-51 -9 -68 15 -167 14 -60 37 -172 50 -248 32 -182 57 -283 94 -389 40 -113
98 -232 106 -218 3 5 4 14 1 18 -3 5 -8 64 -11 133 -6 107 -12 141 -47 249
-22 69 -51 145 -66 170 -25 44 -25 46 -13 127 12 83 27 133 42 133 4 0 28 -31
52 -69 33 -50 47 -80 49 -112 2 -32 8 -45 20 -47 17 -3 25 10 111 197 11 25
21 59 21 75 -1 53 -21 192 -31 212 -17 32 -27 258 -13 286 18 34 62 78 78 78
23 0 12 -132 -12 -159 -16 -18 -17 -25 -8 -46 15 -33 43 -32 70 5 18 24 22 43
22 108 l0 79 38 25 c20 14 54 36 75 49 20 13 40 32 43 41 3 10 31 33 63 52 80
49 132 109 180 207 71 148 114 352 115 546 1 95 4 123 14 123 31 0 5 35 -33
45 -54 14 -65 22 -65 48 0 25 80 117 101 117 34 -1 38 -16 9 -34 -56 -32 -27
-71 31 -42 18 9 35 16 39 16 13 0 18 -83 7 -105 -5 -10 -12 -52 -14 -92 -4
-64 -3 -74 13 -80 11 -3 22 -11 26 -17 5 -7 12 -6 20 5 22 26 91 67 126 74 26
5 37 16 58 58 29 55 64 207 64 274 0 25 6 48 16 58 23 22 80 50 140 68 69 21
108 42 132 72 28 35 135 254 175 359 40 103 67 130 67 67 0 -21 -11 -72 -25
-113 -23 -68 -32 -118 -20 -118 3 0 27 16 55 36 48 34 50 38 50 82 0 26 8 61
17 77 9 17 17 55 18 85 1 30 7 86 13 125 6 38 9 71 6 74 -2 2 -18 -8 -34 -24
-30 -28 -31 -29 -59 -12 -15 9 -31 14 -35 10 -3 -3 -6 0 -6 7 0 29 45 82 111
130 38 29 87 72 108 97 34 41 47 48 102 59 88 19 123 17 169 -6 76 -39 150
-19 226 62 22 23 61 60 86 80 45 37 47 37 104 30 31 -4 59 -11 61 -17 1 -5
-17 -18 -41 -28 -25 -10 -58 -30 -74 -45 -16 -15 -64 -58 -107 -97 -151 -137
-163 -155 -167 -261 -3 -65 -2 -69 20 -72 15 -2 22 -10 22 -26 0 -34 26 -53
38 -29 16 29 85 99 112 113 49 25 102 74 149 136 37 49 50 75 55 114 4 28 12
52 19 54 7 2 39 8 72 15 33 6 116 38 185 70 135 64 169 76 243 87 47 6 52 12
48 56 -2 17 9 22 69 33 49 9 90 26 90 37 0 6 51 7 138 3 114 -6 145 -5 173 8
19 8 54 21 79 29 42 12 45 16 48 51 2 21 -1 37 -7 37 -7 0 -11 22 -11 52 0 44
-6 61 -36 105 -30 44 -42 53 -66 53 -16 0 -41 9 -55 20 -33 25 -77 25 -151 0
-53 -19 -117 -24 -232 -18 -19 1 -86 -13 -149 -31 -113 -33 -115 -33 -263 -26
-135 7 -152 10 -185 32 -36 25 -38 25 -230 21 -147 -2 -193 0 -193 9 0 7 14
28 30 46 31 36 39 74 18 95 -30 30 -185 -10 -201 -53 -12 -31 -7 -65 12 -84
18 -18 18 -20 3 -34 -61 -54 -212 -94 -260 -68 -14 7 -23 8 -27 1 -12 -20 -35
-10 -35 15 0 49 -95 60 -135 15 -13 -15 -31 -20 -67 -20 -27 0 -58 -5 -69 -10
-16 -9 -19 -7 -19 12 0 13 4 38 10 57 9 31 8 33 -13 26 -12 -4 -47 -10 -77
-12 -47 -4 -58 -1 -74 16 -11 12 -24 21 -30 21 -7 0 -34 -21 -62 -47 -54 -52
-143 -103 -179 -103 -12 0 -42 -7 -65 -15 -23 -8 -45 -15 -48 -15 -11 0 126
102 256 191 203 138 394 249 642 373 687 341 1418 530 2195 566 239 11 242 11
485 0z"/>
<path d="M7950 10723 c-14 -2 -55 -13 -91 -24 -36 -10 -78 -19 -93 -19 -23 0
-28 -6 -43 -61 -9 -34 -24 -64 -34 -70 -18 -9 -103 -12 -203 -7 -45 3 -50 1
-66 -27 -25 -45 -118 -76 -247 -83 -132 -6 -322 28 -356 63 -29 30 -117 44
-237 38 -97 -6 -123 -14 -114 -38 7 -18 -18 -30 -100 -49 -37 -9 -87 -27 -110
-41 -24 -14 -57 -25 -74 -25 -70 0 -105 -35 -62 -62 34 -22 23 -78 -16 -78
-12 0 -35 -10 -50 -23 -23 -20 -25 -26 -15 -45 6 -12 25 -29 41 -37 35 -18 45
-49 36 -114 -6 -43 -3 -52 24 -86 16 -21 30 -41 30 -46 0 -15 39 -20 60 -7 19
12 24 10 46 -15 23 -27 33 -77 15 -77 -17 0 -124 -105 -153 -149 -40 -64 -38
-81 11 -81 98 0 221 61 356 176 133 113 166 133 210 128 30 -4 55 1 98 21 l59
26 96 -17 c249 -42 456 -157 653 -361 169 -175 311 -393 493 -753 97 -192 139
-280 231 -490 86 -195 190 -395 227 -437 9 -10 34 -54 57 -99 24 -44 86 -135
142 -202 54 -67 99 -126 99 -130 0 -15 60 -100 75 -106 20 -7 47 22 44 48 -1
11 2 37 8 57 12 39 5 95 -20 164 -17 48 -82 179 -106 215 -10 14 -28 43 -41
65 l-24 40 32 -23 c18 -13 40 -35 50 -49 9 -14 41 -51 69 -83 29 -31 59 -75
67 -97 14 -41 95 -155 129 -183 28 -24 78 -201 71 -254 -5 -32 -1 -55 15 -91
11 -26 21 -62 21 -80 0 -18 10 -47 23 -66 19 -30 38 -39 142 -76 66 -22 129
-42 140 -42 11 -1 47 -15 80 -31 33 -17 76 -30 96 -30 20 0 42 -6 48 -14 6 -7
25 -16 42 -20 23 -4 38 -19 67 -66 81 -133 212 -332 239 -364 15 -18 36 -47
45 -65 13 -23 24 -31 48 -32 16 -1 35 -2 42 -3 7 -1 22 13 34 31 l21 31 18
-148 18 -149 -23 -48 c-12 -26 -30 -57 -40 -68 -9 -11 -22 -42 -28 -70 -6 -27
-20 -77 -32 -110 -15 -41 -20 -74 -17 -103 3 -24 -1 -67 -8 -95 -9 -36 -13
-119 -11 -272 2 -219 2 -220 34 -317 21 -61 30 -106 26 -122 -7 -31 24 -104
64 -146 40 -41 66 -137 60 -220 -3 -48 -14 -80 -52 -152 -26 -50 -58 -120 -72
-156 -13 -36 -29 -71 -35 -78 -13 -16 -89 -233 -89 -255 0 -9 -34 -86 -76
-170 -56 -113 -87 -164 -119 -194 -35 -33 -44 -49 -50 -90 -9 -65 -35 -106
-89 -140 -42 -26 -82 -77 -119 -150 -8 -17 -50 -71 -92 -120 -131 -153 -205
-281 -205 -353 0 -18 14 -42 41 -70 39 -42 42 -43 60 -26 11 10 31 18 45 19
28 1 73 49 74 78 0 19 25 59 73 115 15 18 27 39 27 46 0 8 14 19 30 25 17 5
30 17 30 25 0 9 13 22 29 31 33 16 46 44 36 75 -5 15 6 32 49 73 31 29 68 77
82 106 27 53 73 105 133 149 17 13 31 30 31 38 0 7 26 27 58 43 79 40 167 141
174 202 5 39 23 56 69 63 56 9 149 101 149 147 0 35 17 70 80 164 26 39 67
106 90 150 40 73 136 210 230 325 23 28 84 150 162 325 122 273 125 283 136
382 7 56 21 126 31 155 58 157 77 288 44 306 -14 8 -15 15 -4 56 14 56 2 86
-34 86 -39 0 -55 11 -75 50 -11 21 -30 47 -43 57 -29 22 -40 93 -41 258 -2
139 -20 176 -116 238 -23 15 -47 47 -75 101 -28 55 -54 89 -87 116 -43 34 -52
38 -104 36 -67 -2 -74 7 -74 91 0 33 -5 64 -12 71 -17 17 -121 15 -170 -4 -68
-26 -91 -54 -96 -118 -3 -37 -11 -61 -23 -72 -11 -9 -19 -26 -19 -37 0 -17 -5
-19 -31 -13 -17 3 -42 6 -56 6 -19 0 -29 10 -47 53 -20 42 -25 76 -30 182 -10
222 -15 251 -49 285 -35 34 -53 37 -77 15 -19 -17 -86 -23 -99 -9 -5 5 -4 52
2 109 9 91 13 103 44 139 34 40 44 90 21 98 -21 8 -101 1 -132 -11 -16 -6 -46
-29 -67 -51 -43 -44 -106 -80 -142 -80 -13 0 -36 13 -53 31 l-29 30 -10 256
-10 256 49 42 c52 46 43 44 246 61 l75 6 44 -38 c32 -28 55 -62 86 -129 44
-95 83 -138 119 -133 25 4 26 25 6 218 -6 69 -9 157 -5 195 3 39 8 104 10 145
2 41 8 88 14 103 17 43 13 88 -10 131 -15 29 -19 48 -14 74 10 56 49 132 99
200 38 49 53 62 75 62 30 0 123 43 141 65 22 26 2 81 -50 141 -66 76 -64 95 3
22 59 -63 80 -73 144 -63 73 11 76 65 8 138 -19 21 -35 43 -35 50 0 7 -25 39
-56 72 -64 70 -94 125 -164 302 -28 70 -69 166 -91 213 l-40 86 -82 23 c-45
12 -98 21 -117 19 l-35 -3 0 -75 c0 -102 -13 -102 -109 4 -99 109 -154 146
-216 146 -33 0 -52 -6 -63 -18 -24 -26 -21 -38 12 -61 27 -19 29 -27 33 -98 3
-43 8 -86 12 -95 7 -16 2 -18 -37 -18 -76 0 -106 10 -125 42 -19 34 -224 174
-262 179 -28 5 -48 55 -49 127 -1 37 2 42 22 42 12 0 31 7 41 15 25 19 50 19
66 0 14 -17 50 -20 50 -5 0 6 12 10 26 10 24 0 25 -2 19 -44 -8 -49 4 -65 29
-40 21 20 21 73 1 80 -12 5 -13 10 -4 20 18 22 64 17 105 -11 22 -15 51 -25
71 -25 37 0 75 -24 159 -101 66 -61 106 -82 126 -66 54 44 80 146 58 228 -17
64 -68 107 -180 153 -78 33 -105 50 -158 103 -102 101 -223 152 -575 243 -175
45 -191 51 -223 84 -39 40 -45 42 -77 22 -12 -7 -38 -14 -57 -14 -39 -1 -281
52 -311 68 -10 6 -58 18 -106 26 -49 9 -99 23 -113 32 -16 10 -49 16 -90 17
-36 0 -81 4 -100 7 -19 3 -46 4 -60 1z"/>
<path d="M6685 9840 c-11 -5 -37 -24 -57 -42 l-38 -33 19 -24 18 -24 34 21
c56 34 85 70 73 89 -13 21 -24 24 -49 13z"/>
<path d="M4830 9700 c0 -5 4 -10 9 -10 6 0 13 5 16 10 3 6 -1 10 -9 10 -9 0
-16 -4 -16 -10z"/>
<path d="M5070 9581 c0 -5 6 -14 14 -20 10 -8 16 -8 25 2 6 8 8 17 4 20 -9 10
-43 8 -43 -2z"/>
<path d="M6045 9550 c3 -5 8 -10 11 -10 2 0 4 5 4 10 0 6 -5 10 -11 10 -5 0
-7 -4 -4 -10z"/>
<path d="M5946 9526 c-10 -36 -7 -37 35 -16 45 23 45 32 0 35 -23 2 -31 -2
-35 -19z"/>
<path d="M4317 9424 c-9 -9 24 -55 34 -48 15 9 10 33 -10 43 -10 6 -21 8 -24
5z"/>
<path d="M5534 9409 c-9 -15 12 -33 30 -26 9 4 16 13 16 22 0 17 -35 21 -46 4z"/>
<path d="M4025 9110 c3 -5 10 -10 16 -10 5 0 9 5 9 10 0 6 -7 10 -16 10 -8 0
-12 -4 -9 -10z"/>
<path d="M3698 9046 c-7 -24 -29 -66 -48 -91 -19 -26 -45 -61 -57 -77 -16 -21
-21 -38 -16 -59 8 -43 -12 -81 -72 -133 -34 -29 -56 -57 -60 -76 -5 -22 -38
-58 -122 -133 -156 -138 -204 -178 -231 -188 -17 -7 -21 -14 -17 -31 3 -13 7
-45 9 -72 5 -55 21 -80 36 -56 5 8 7 17 4 21 -2 4 6 9 18 11 17 2 24 11 28 36
4 24 14 37 42 52 21 11 48 20 60 20 13 0 34 6 48 14 14 7 57 30 96 49 129 66
218 188 246 341 12 63 17 71 61 109 36 30 47 45 43 60 -3 13 7 35 31 63 30 37
33 47 23 59 -10 12 -10 21 -1 41 6 14 11 27 11 29 0 10 -59 43 -87 49 -31 7
-32 6 -45 -38z"/>
<path d="M3920 9070 c0 -5 5 -10 10 -10 6 0 10 5 10 10 0 6 -4 10 -10 10 -5 0
-10 -4 -10 -10z"/>
<path d="M2996 7901 c-4 -5 -2 -12 3 -15 5 -4 12 -2 15 3 4 5 2 12 -3 15 -5 4
-12 2 -15 -3z"/>
<path d="M2920 7770 c0 -5 5 -10 10 -10 6 0 10 5 10 10 0 6 -4 10 -10 10 -5 0
-10 -4 -10 -10z"/>
<path d="M2674 7658 c-25 -31 -64 -108 -64 -129 0 -6 12 -9 27 -7 46 5 117
168 73 168 -5 0 -20 -15 -36 -32z"/>
<path d="M10130 7440 c0 -6 -9 -24 -21 -39 -23 -31 -22 -76 1 -77 8 0 46 -4
84 -8 82 -9 90 -16 170 -151 39 -64 63 -95 75 -95 10 0 40 -17 67 -37 47 -37
52 -38 134 -39 47 -1 93 2 103 7 23 13 22 46 -3 61 -11 7 -20 18 -20 24 0 15
-290 211 -440 298 -110 63 -150 78 -150 56z"/>
<path d="M6360 7400 c0 -5 5 -10 10 -10 6 0 10 5 10 10 0 6 -4 10 -10 10 -5 0
-10 -4 -10 -10z"/>
<path d="M6520 7331 c0 -12 29 -35 36 -28 11 10 -5 37 -21 37 -8 0 -15 -4 -15
-9z"/>
<path d="M2604 7178 c-29 -41 -29 -42 -29 -190 0 -156 5 -171 42 -125 25 32
44 37 65 19 16 -13 18 -13 24 2 3 9 2 22 -4 29 -13 17 -23 86 -28 192 -2 50
-6 96 -9 103 -8 23 -32 12 -61 -30z"/>
<path d="M6586 7203 c-9 -22 10 -41 25 -26 13 13 5 43 -10 43 -5 0 -12 -8 -15
-17z"/>
<path d="M10364 7065 c-8 -21 15 -47 39 -43 32 5 30 22 -3 41 -27 16 -31 17
-36 2z"/>
<path d="M2615 6820 c-3 -5 3 -10 14 -10 12 0 21 5 21 10 0 6 -6 10 -14 10 -8
0 -18 -4 -21 -10z"/>
<path d="M2695 6810 c3 -5 8 -10 11 -10 2 0 4 5 4 10 0 6 -5 10 -11 10 -5 0
-7 -4 -4 -10z"/>
<path d="M2736 6813 c-3 -4 -6 -27 -6 -52 0 -25 -3 -56 -6 -68 -5 -18 -8 -20
-19 -9 -7 7 -15 24 -17 37 -4 31 -25 31 -45 -2 -15 -24 -14 -29 1 -59 17 -35
14 -52 -6 -32 -13 13 -38 16 -38 5 0 -5 18 -18 40 -31 32 -18 40 -19 40 -8 0
8 8 21 18 28 10 7 31 39 46 71 23 46 33 57 53 57 15 0 23 5 20 13 -2 6 -14 12
-26 11 -13 0 -21 5 -21 17 0 17 -23 32 -34 22z"/>
<path d="M2572 6794 c1 -9 9 -19 16 -22 9 -3 13 2 10 14 -1 9 -9 19 -16 22 -9
3 -13 -2 -10 -14z"/>
<path d="M2544 6692 c-16 -10 -76 -132 -65 -132 5 0 22 21 37 48 15 26 34 57
42 70 14 22 8 29 -14 14z"/>
<path d="M2745 6590 c-6 -20 -62 -50 -92 -50 -31 0 -42 -25 -37 -86 3 -32 7
-61 10 -63 8 -8 25 16 27 38 1 11 4 21 7 21 12 0 50 -41 50 -53 1 -28 17 -39
39 -28 11 7 21 18 21 25 0 7 9 21 20 31 21 19 28 75 9 75 -7 0 -10 19 -7 53 3
47 1 52 -19 55 -14 2 -23 -3 -28 -18z"/>
<path d="M1516 6548 c-20 -47 -20 -95 -1 -142 16 -39 35 -48 35 -17 0 10 9 30
21 45 15 19 16 24 5 20 -13 -5 -16 2 -16 43 0 27 -6 58 -14 69 -14 18 -15 17
-30 -18z"/>
<path d="M2432 6401 c2 -25 -2 -34 -21 -44 -25 -12 -30 -23 -72 -165 -16 -54
-32 -85 -60 -115 -48 -52 -56 -78 -39 -136 7 -25 16 -71 21 -101 6 -43 14 -60
36 -77 15 -12 37 -30 48 -40 18 -17 44 -34 73 -49 18 -9 45 4 39 21 -3 7 1 27
9 43 22 45 33 160 34 343 0 140 3 169 16 180 24 20 12 84 -24 128 -39 49 -65
54 -60 12z"/>
<path d="M1845 6263 c4 -33 34 -107 100 -240 l94 -193 -14 -41 -15 -41 78 -87
c74 -85 77 -87 80 -60 2 18 -4 36 -14 47 -16 15 -16 17 -1 20 37 7 22 50 -100
289 -68 132 -119 243 -114 245 5 1 -5 26 -22 55 -23 38 -38 52 -54 53 -21 0
-22 -3 -18 -47z"/>
<path d="M2654 6028 c-36 -10 -55 -28 -75 -73 -25 -58 -32 -131 -19 -210 11
-70 45 -163 56 -152 3 3 1 14 -4 24 -6 11 -7 34 -3 53 l7 35 37 -72 c39 -77
66 -93 87 -53 12 23 -6 75 -45 126 -25 33 -25 34 -9 76 10 24 21 48 25 54 14
18 -2 24 -18 8 -21 -21 -29 -9 -13 21 15 27 7 46 -12 27 -18 -18 -26 -14 -21
11 3 15 23 32 61 53 37 20 58 38 60 51 3 18 -3 21 -42 25 -25 2 -57 0 -72 -4z"/>
<path d="M2851 6018 c17 -34 19 -34 19 -5 0 18 -5 27 -15 27 -13 0 -14 -4 -4
-22z"/>
<path d="M3025 5910 c-21 -34 -22 -69 -4 -96 11 -17 19 -47 19 -74 0 -25 8
-54 16 -65 14 -18 16 -19 25 -3 8 15 15 11 55 -28 27 -25 55 -44 68 -44 46 0
87 -79 90 -175 1 -38 8 -69 19 -86 22 -32 90 -79 115 -79 10 0 23 -5 29 -11
19 -19 69 16 87 61 9 22 16 47 16 55 0 30 30 14 69 -38 27 -36 39 -59 35 -73
-7 -26 6 -35 82 -63 105 -38 139 -19 81 46 -55 61 -131 193 -129 224 2 20 -6
33 -27 48 -16 12 -54 56 -84 99 -65 92 -141 166 -200 192 -49 23 -133 26 -156
6 -9 -7 -29 -18 -46 -24 -16 -5 -37 -13 -46 -16 -13 -6 -18 5 -29 56 -8 41
-20 69 -34 80 -24 20 -42 23 -51 8z"/>
<path d="M2867 5712 c7 -18 46 -32 88 -32 33 0 34 1 23 25 -10 22 -17 24 -63
23 -41 -1 -52 -5 -48 -16z"/>
<path d="M3855 5592 c-10 -39 -24 -52 -55 -52 -36 0 -58 -25 -43 -48 16 -25
61 -17 95 15 23 22 28 35 26 66 -2 47 -13 56 -23 19z"/>
<path d="M3131 5556 c-17 -20 -10 -81 9 -81 10 0 16 12 18 39 4 44 -9 64 -27
42z"/>
<path d="M2169 5558 c-1 -2 -3 -15 -5 -30 -4 -35 32 -66 131 -113 80 -38 209
-77 220 -67 4 4 19 7 33 7 17 0 27 5 27 15 0 11 -9 14 -30 12 -22 -2 -44 7
-74 28 -23 17 -53 35 -67 40 -14 6 -24 17 -24 30 0 20 -8 24 -48 20 -12 -1
-46 12 -76 29 -45 26 -83 38 -87 29z"/>
<path d="M4015 5548 c-30 -16 -31 -18 -15 -28 8 -5 15 -15 15 -22 1 -7 5 -30
9 -50 10 -46 37 -51 62 -13 15 22 15 30 3 61 -18 47 -47 67 -74 52z"/>
<path d="M2997 5412 c-19 -21 -22 -48 -7 -57 13 -8 50 35 47 54 -3 22 -22 23
-40 3z"/>
<path d="M4110 5411 c0 -22 16 -36 24 -22 8 12 -3 41 -15 41 -5 0 -9 -9 -9
-19z"/>
<path d="M2634 5386 c-7 -19 12 -46 32 -46 20 0 17 24 -6 45 -18 16 -20 16
-26 1z"/>
<path d="M2720 5370 c0 -5 5 -10 10 -10 6 0 10 5 10 10 0 6 -4 10 -10 10 -5 0
-10 -4 -10 -10z"/>
<path d="M2799 5347 c-28 -24 -56 -74 -46 -83 13 -13 65 8 75 31 6 14 23 26
41 30 36 8 38 13 14 31 -26 20 -55 17 -84 -9z"/>
<path d="M4180 5355 c0 -8 6 -15 13 -15 8 0 22 -9 31 -19 21 -23 46 -17 46 10
0 12 -10 23 -26 29 -37 14 -64 12 -64 -5z"/>
<path d="M4142 5338 c-18 -18 -15 -27 18 -65 l30 -34 0 44 c0 38 -13 67 -30
67 -3 0 -11 -5 -18 -12z"/>
<path d="M2606 5301 c-3 -5 0 -14 8 -20 10 -8 16 -8 25 2 6 8 8 17 4 20 -9 10
-31 9 -37 -2z"/>
<path d="M4292 5278 c6 -17 36 -34 45 -24 4 4 -1 14 -11 22 -24 17 -39 18 -34
2z"/>
<path d="M3917 5263 c-12 -11 -8 -23 8 -23 8 0 15 7 15 15 0 16 -12 20 -23 8z"/>
<path d="M4250 5227 c0 -16 89 -87 109 -87 14 0 14 17 1 25 -5 3 -10 14 -10
23 0 29 -14 41 -58 48 -34 5 -42 4 -42 -9z"/>
<path d="M3011 5136 c-9 -10 -8 -29 4 -77 14 -61 13 -66 -7 -108 -20 -40 -22
-42 -35 -26 -7 11 -13 23 -13 28 0 4 -14 7 -32 5 -28 -3 -35 -10 -59 -58 -18
-37 -34 -57 -50 -60 -23 -6 -24 -10 -24 -89 l0 -83 -50 -45 c-27 -24 -74 -61
-104 -81 l-53 -36 5 -63 c2 -35 9 -69 14 -76 6 -6 24 -57 42 -112 40 -121 107
-288 156 -384 20 -41 35 -85 35 -106 0 -71 81 -109 150 -70 14 8 42 14 62 15
26 0 47 8 70 28 45 39 164 102 191 102 12 0 27 -4 33 -8 19 -12 38 -56 36 -83
-2 -29 50 -113 85 -136 21 -14 24 -12 59 41 20 31 42 56 49 56 7 0 15 -18 19
-41 13 -79 57 -141 176 -241 65 -55 65 -55 150 -62 79 -6 85 -5 100 15 17 22
52 28 84 14 17 -7 18 -5 12 19 -5 20 0 35 19 60 39 51 51 128 36 223 -7 43
-12 115 -11 160 1 64 -3 89 -20 119 -11 21 -20 49 -20 62 0 27 -39 107 -86
174 -18 27 -36 58 -40 70 -12 40 -126 198 -154 215 -29 17 -120 189 -120 226
0 11 -7 33 -15 51 -20 43 -109 136 -129 136 -17 0 -29 36 -49 154 -22 133 -51
109 -68 -56 -6 -57 -9 -123 -8 -148 7 -141 -2 -147 -97 -65 -44 38 -83 75 -88
83 -4 8 -5 38 -1 68 10 82 0 109 -51 144 -25 16 -58 37 -74 45 -37 19 -114 20
-129 1z"/>
<path d="M5675 4710 c4 -6 11 -8 16 -5 14 9 11 15 -7 15 -8 0 -12 -5 -9 -10z"/>
<path d="M5090 3495 c-10 -12 -8 -22 11 -52 13 -21 29 -41 36 -46 20 -12 33
-76 33 -163 0 -81 0 -82 34 -108 19 -14 39 -26 44 -26 11 0 25 38 23 58 -1 7
16 21 39 30 37 15 41 20 36 44 -3 15 -1 30 4 33 16 10 12 42 -6 49 -9 3 -20 3
-25 0 -5 -3 -53 40 -105 95 -53 56 -100 101 -104 101 -4 0 -13 -7 -20 -15z"/>
<path d="M3964 3224 c18 -72 110 -159 141 -134 15 13 20 56 9 85 -8 20 -55 45
-86 45 -22 1 -22 1 -4 15 18 14 17 15 -23 15 -41 0 -43 -1 -37 -26z"/>
<path d="M5091 3134 c-13 -50 -70 -117 -113 -134 -77 -31 -89 -75 -36 -141 29
-36 35 -39 79 -39 46 0 50 2 68 38 10 20 22 48 26 62 4 14 17 48 30 75 40 86
40 89 -4 136 l-39 43 -11 -40z"/>
</g>
</svg>
